<svg width="92" height="59" viewBox="0 0 92 59" fill="none" xmlns="http://www.w3.org/2000/svg">
<ellipse rx="7.66667" ry="7.69565" transform="matrix(-1 0 0 1 66.4447 51.3044)" fill="#112035"/>
<ellipse rx="7.66667" ry="7.69565" transform="matrix(-1 0 0 1 28.1112 51.3044)" fill="#112035"/>
<path d="M92 42.3261C92 35.2424 86.2792 29.5 79.2222 29.5H49.8333V52.587H92V42.3261Z" fill="#FF7695"/>
<path fill-rule="evenodd" clip-rule="evenodd" d="M53.6667 33.3478H79.2222C84.1621 33.3478 88.1667 37.3675 88.1667 42.3261V48.7391H53.6667V33.3478ZM79.2222 29.5C86.2792 29.5 92 35.2424 92 42.3261V52.587H49.8333V29.5H79.2222Z" fill="#112035"/>
<path fill-rule="evenodd" clip-rule="evenodd" d="M64.5277 44.8913C62.7635 44.8913 61.3333 43.4557 61.3333 41.6848C61.3333 39.9139 62.7635 38.4783 64.5277 38.4783C66.292 38.4783 67.7222 39.9139 67.7222 41.6848C67.7222 43.4557 66.292 44.8913 64.5277 44.8913Z" fill="white"/>
<path fill-rule="evenodd" clip-rule="evenodd" d="M69 41.6848C69 39.2055 66.9977 37.1957 64.5278 37.1957C62.0578 37.1957 60.0556 39.2055 60.0556 41.6848C60.0556 44.1641 62.0578 46.1739 64.5278 46.1739C66.9977 46.1739 69 44.1641 69 41.6848ZM64.5278 39.7609C65.5863 39.7609 66.4444 40.6223 66.4444 41.6848C66.4444 42.7474 65.5863 43.6087 64.5278 43.6087C63.4692 43.6087 62.6111 42.7474 62.6111 41.6848C62.6111 40.6223 63.4692 39.7609 64.5278 39.7609Z" fill="#15243A"/>
<path fill-rule="evenodd" clip-rule="evenodd" d="M79.8612 44.8913C78.097 44.8913 76.6668 43.4557 76.6668 41.6848C76.6668 39.9139 78.097 38.4783 79.8612 38.4783C81.6255 38.4783 83.0557 39.9139 83.0557 41.6848C83.0557 43.4557 81.6255 44.8913 79.8612 44.8913Z" fill="white"/>
<path fill-rule="evenodd" clip-rule="evenodd" d="M84.3335 41.6848C84.3335 39.2055 82.3312 37.1957 79.8613 37.1957C77.3913 37.1957 75.3891 39.2055 75.3891 41.6848C75.3891 44.1641 77.3913 46.1739 79.8613 46.1739C82.3312 46.1739 84.3335 44.1641 84.3335 41.6848ZM79.8613 39.7609C80.9198 39.7609 81.7779 40.6223 81.7779 41.6848C81.7779 42.7474 80.9198 43.6087 79.8613 43.6087C78.8027 43.6087 77.9446 42.7474 77.9446 41.6848C77.9446 40.6223 78.8027 39.7609 79.8613 39.7609Z" fill="#15243A"/>
<path d="M53.6665 29.5H12.7776C5.72064 29.5 -0.000163317 35.2424 -0.000163317 42.3261V52.587H53.6665V29.5Z" fill="#FF7695"/>
<path fill-rule="evenodd" clip-rule="evenodd" d="M12.7776 33.3478H49.8332V48.7391H3.83317V42.3261C3.83317 37.3675 7.83773 33.3478 12.7776 33.3478ZM53.6665 29.5V52.587H-0.000163317V42.3261C-0.000163317 35.2424 5.72064 29.5 12.7776 29.5H53.6665Z" fill="#112035"/>
<path fill-rule="evenodd" clip-rule="evenodd" d="M12.7776 33.3478H53.6665V0H25.4993C21.8234 0 18.6648 2.61893 17.9706 6.24235L12.7776 33.3478ZM17.4184 29.5H49.8332V3.84783H25.4993C23.8911 3.84783 22.4809 4.85038 21.921 6.31473C21.841 6.52392 21.7783 6.74254 21.7349 6.969L17.4184 29.5Z" fill="#112035"/>
<path d="M75.307 6.24235C74.6129 2.61893 71.4542 0 67.7783 0H49.8333V33.3478H80.5L75.307 6.24235Z" fill="white"/>
<path fill-rule="evenodd" clip-rule="evenodd" d="M75.307 6.24235C74.6129 2.61893 71.4542 0 67.7783 0H49.8333V33.3478H80.5L75.307 6.24235ZM53.6667 29.5V3.84783H67.7783C69.6163 3.84783 71.1956 5.15729 71.5427 6.96901L75.8592 29.5H53.6667Z" fill="#112035"/>
<path fill-rule="evenodd" clip-rule="evenodd" d="M56.2067 25.23L72.4131 33.3638L74.1274 29.9222L57.921 21.7884L56.2067 25.23Z" fill="#15243A"/>
<ellipse rx="7.66667" ry="7.69565" transform="matrix(-1 0 0 1 44.722 51.3044)" fill="#112035"/>
<ellipse rx="2.55556" ry="2.56522" transform="matrix(-1 0 0 1 44.7223 51.3044)" fill="white"/>
<ellipse rx="7.66667" ry="7.69565" transform="matrix(-1 0 0 1 11.4998 51.3044)" fill="#112035"/>
<ellipse rx="2.55556" ry="2.56522" transform="matrix(-1 0 0 1 11.5001 51.3044)" fill="white"/>
<path fill-rule="evenodd" clip-rule="evenodd" d="M24.2777 50.0217V32.0652H20.4443V50.0217H24.2777Z" fill="#112035"/>
<path fill-rule="evenodd" clip-rule="evenodd" d="M26.8332 39.7609H31.9443V35.913H26.8332V39.7609Z" fill="#112035"/>
</svg>
