<svg width="64" height="64" viewBox="0 0 64 64" fill="none" xmlns="http://www.w3.org/2000/svg">
<path fill-rule="evenodd" clip-rule="evenodd" d="M43.5555 34.222H20.4444C19.2171 34.222 18.2222 35.2169 18.2222 36.4442V43.0875H45.7778V36.4442C45.7778 35.2169 44.7829 34.222 43.5555 34.222ZM20.4444 32.8887C18.4808 32.8887 16.8889 34.4805 16.8889 36.4442V43.5319C16.8889 44.0229 17.2869 44.4208 17.7778 44.4208H46.2222C46.7131 44.4208 47.1111 44.0229 47.1111 43.5319V36.4442C47.1111 34.4805 45.5192 32.8887 43.5555 32.8887H20.4444Z" fill="#112035"/>
<path fill-rule="evenodd" clip-rule="evenodd" d="M40.4444 18.222H23.5556C22.3283 18.222 21.3333 19.2169 21.3333 20.4442V32.4442H42.6667V20.4442C42.6667 19.2169 41.6717 18.222 40.4444 18.222ZM23.5556 16.8887C21.5919 16.8887 20 18.4805 20 20.4442V33.7776H44V20.4442C44 18.4805 42.4081 16.8887 40.4444 16.8887H23.5556Z" fill="#112035"/>
<path fill-rule="evenodd" clip-rule="evenodd" d="M20 22.6669C20 20.7032 21.5919 19.1113 23.5556 19.1113H40.4444C42.4081 19.1113 44 20.7032 44 22.6669V34.2224H20V22.6669Z" fill="white"/>
<path fill-rule="evenodd" clip-rule="evenodd" d="M40.4444 20.4447H23.5556C22.3283 20.4447 21.3333 21.4396 21.3333 22.6669V32.8891H42.6667V22.6669C42.6667 21.4396 41.6717 20.4447 40.4444 20.4447ZM23.5556 19.1113C21.5919 19.1113 20 20.7032 20 22.6669V34.2224H44V22.6669C44 20.7032 42.4081 19.1113 40.4444 19.1113H23.5556Z" fill="#112035"/>
<path opacity="0.5" fill-rule="evenodd" clip-rule="evenodd" d="M34.8875 20.4443H40.4444C41.6717 20.4443 42.6667 21.4393 42.6667 22.6666V32.8888H25.7778L34.8875 20.4443Z" fill="#ECECEC"/>
<path fill-rule="evenodd" clip-rule="evenodd" d="M25.7778 41.7776C25.7778 41.2866 26.1757 40.8887 26.6667 40.8887H37.3333C37.8242 40.8887 38.2222 41.2866 38.2222 41.7776V44.4442C38.2222 44.9351 37.8242 45.3331 37.3333 45.3331H26.6667C26.1757 45.3331 25.7778 44.9351 25.7778 44.4442V41.7776Z" fill="white"/>
<path fill-rule="evenodd" clip-rule="evenodd" d="M27.1111 42.222V43.9998H36.8889V42.222H27.1111ZM26.6667 40.8887C26.1757 40.8887 25.7778 41.2866 25.7778 41.7776V44.4442C25.7778 44.9351 26.1757 45.3331 26.6667 45.3331H37.3333C37.8242 45.3331 38.2222 44.9351 38.2222 44.4442V41.7776C38.2222 41.2866 37.8242 40.8887 37.3333 40.8887H26.6667Z" fill="#112035"/>
<path fill-rule="evenodd" clip-rule="evenodd" d="M17.3333 44H23.1111V46.6667C23.1111 47.403 22.5142 48 21.7778 48H18.6667C17.9303 48 17.3333 47.403 17.3333 46.6667V44Z" fill="#112035"/>
<path fill-rule="evenodd" clip-rule="evenodd" d="M40.8889 44H46.6667V46.6667C46.6667 47.403 46.0697 48 45.3333 48H42.2222C41.4858 48 40.8889 47.403 40.8889 46.6667V44Z" fill="#112035"/>
<path fill-rule="evenodd" clip-rule="evenodd" d="M21.3333 41.3334C22.3152 41.3334 23.1111 40.5374 23.1111 39.5556C23.1111 38.5738 22.3152 37.7778 21.3333 37.7778C20.3515 37.7778 19.5555 38.5738 19.5555 39.5556C19.5555 40.5374 20.3515 41.3334 21.3333 41.3334Z" fill="white"/>
<path fill-rule="evenodd" clip-rule="evenodd" d="M18.8889 39.5558C18.8889 38.2057 19.9833 37.1113 21.3333 37.1113C22.6834 37.1113 23.7778 38.2057 23.7778 39.5558C23.7778 40.9058 22.6834 42.0002 21.3333 42.0002C19.9833 42.0002 18.8889 40.9058 18.8889 39.5558ZM21.3333 38.4447C20.7197 38.4447 20.2222 38.9421 20.2222 39.5558C20.2222 40.1694 20.7197 40.6669 21.3333 40.6669C21.947 40.6669 22.4444 40.1694 22.4444 39.5558C22.4444 38.9421 21.947 38.4447 21.3333 38.4447Z" fill="#112035"/>
<path fill-rule="evenodd" clip-rule="evenodd" d="M42.6667 41.3334C43.6485 41.3334 44.4444 40.5374 44.4444 39.5556C44.4444 38.5738 43.6485 37.7778 42.6667 37.7778C41.6848 37.7778 40.8889 38.5738 40.8889 39.5556C40.8889 40.5374 41.6848 41.3334 42.6667 41.3334Z" fill="white"/>
<path fill-rule="evenodd" clip-rule="evenodd" d="M40.2222 39.5558C40.2222 38.2057 41.3166 37.1113 42.6667 37.1113C44.0167 37.1113 45.1111 38.2057 45.1111 39.5558C45.1111 40.9058 44.0167 42.0002 42.6667 42.0002C41.3166 42.0002 40.2222 40.9058 40.2222 39.5558ZM42.6667 38.4447C42.053 38.4447 41.5556 38.9421 41.5556 39.5558C41.5556 40.1694 42.053 40.6669 42.6667 40.6669C43.2803 40.6669 43.7778 40.1694 43.7778 39.5558C43.7778 38.9421 43.2803 38.4447 42.6667 38.4447Z" fill="#112035"/>
<path fill-rule="evenodd" clip-rule="evenodd" d="M12 46.6665H57.3419V47.9998H12V46.6665Z" fill="#112035"/>
<path fill-rule="evenodd" clip-rule="evenodd" d="M4.88889 46.6665H11.1313V47.9998H4.88889V46.6665Z" fill="#112035"/>
<path fill-rule="evenodd" clip-rule="evenodd" d="M18.6667 49.7778H33.7778V51.1112H18.6667V49.7778Z" fill="#112035"/>
<path fill-rule="evenodd" clip-rule="evenodd" d="M35.5555 49.7778H45.3333V51.1112H35.5555V49.7778Z" fill="#112035"/>
<path fill-rule="evenodd" clip-rule="evenodd" d="M37.9854 29.9083L27.8694 34.2076L27.3479 32.9805L37.4639 28.6812L37.9854 29.9083Z" fill="#112035"/>
</svg>
