<svg width="80" height="79" viewBox="0 0 80 79" fill="none" xmlns="http://www.w3.org/2000/svg">
<ellipse opacity="0.2" cx="43" cy="74" rx="21" ry="5" fill="#112035"/>
<circle cx="43" cy="37" r="35.5" fill="#ACB6D8" stroke="#112035" stroke-width="3"/>
<mask id="mask0" mask-type="alpha" maskUnits="userSpaceOnUse" x="9" y="3" width="68" height="68">
<circle cx="43" cy="37" r="34" fill="#ACB6D8"/>
</mask>
<g mask="url(#mask0)">
<circle cx="43" cy="37" r="34" fill="#ACB6D8"/>
<path fill-rule="evenodd" clip-rule="evenodd" d="M40.8205 53.564L53.8974 53.564H54.3333H62.6154C63.8191 53.564 64.7949 52.5882 64.7949 51.3845C64.7949 50.1808 63.8191 49.205 62.6154 49.205H57.3846L54.3333 49.205H50.4102C49.688 49.205 49.1025 48.6195 49.1025 47.8973C49.1025 47.1751 49.688 46.5896 50.4102 46.5896H54.3333H55.641C56.8447 46.5896 57.8205 45.6138 57.8205 44.4101C57.8205 43.2064 56.8447 42.2306 55.641 42.2306H54.3333H53.8974C52.6937 42.2306 51.7179 41.2548 51.7179 40.0511C51.7179 38.8474 52.6937 37.8717 53.8974 37.8717H54.3333H56.9487C57.9117 37.8717 58.6923 37.091 58.6923 36.1281C58.6923 35.1651 57.9117 34.3845 56.9487 34.3845H54.3333H52.5897H47.359H45.6154C44.6524 34.3845 43.8718 33.6038 43.8718 32.6409C43.8718 31.6779 44.6524 30.8973 45.6154 30.8973H47.359H48.6667C49.8703 30.8973 50.8461 29.9215 50.8461 28.7178C50.8461 27.5141 49.8703 26.5383 48.6666 26.5383H39.0769C37.8732 26.5383 36.8974 27.5141 36.8974 28.7178C36.8974 29.9215 37.8732 30.8973 39.0769 30.8973H39.5128C40.4758 30.8973 41.2564 31.6779 41.2564 32.6409C41.2564 33.6038 40.4758 34.3845 39.5128 34.3845H36.0256H33.4102H31.6666C30.7037 34.3845 29.9231 35.1651 29.9231 36.1281C29.9231 37.091 30.7037 37.8717 31.6667 37.8717H35.5897C36.7934 37.8717 37.7692 38.8474 37.7692 40.0511C37.7692 41.2548 36.7934 42.2306 35.5897 42.2306H31.6666H31.2308H26C24.7963 42.2306 23.8205 43.2064 23.8205 44.4101C23.8205 45.6138 24.7963 46.5896 26 46.5896H30.359H31.6666H36.4615C37.1837 46.5896 37.7692 47.1751 37.7692 47.8973C37.7692 48.6195 37.1837 49.205 36.4615 49.205H31.6666H31.2308C30.0271 49.205 29.0513 50.1808 29.0513 51.3845C29.0513 52.5882 30.0271 53.564 31.2308 53.564H31.6666H40.8205Z" fill="#A7D6C6"/>
<path fill-rule="evenodd" clip-rule="evenodd" d="M73.5128 9.10254H63.0513H61.3077H55.2051C54.2422 9.10254 53.4615 9.88317 53.4615 10.8461C53.4615 11.8091 54.2422 12.5897 55.2051 12.5897H61.3077V12.5897H65.2308C65.953 12.5897 66.5385 13.1752 66.5385 13.8974C66.5385 14.6197 65.953 15.2051 65.2308 15.2051H61.2982C60.3396 15.2102 59.5641 15.9889 59.5641 16.9487C59.5641 17.9117 60.3447 18.6923 61.3077 18.6923V18.6923H63.4872C64.2094 18.6923 64.7949 19.2778 64.7949 20C64.7949 20.7222 64.2094 21.3077 63.4872 21.3077H60.4267C59.468 21.3127 58.6923 22.0914 58.6923 23.0513C58.6923 24.0142 59.4729 24.7948 60.4359 24.7948L61.3077 24.7948H67.4103V24.7949H68.2821C69.245 24.7949 70.0256 25.5755 70.0256 26.5385C70.0256 27.5014 69.245 28.2821 68.2821 28.2821H66.9662C66.2478 28.2864 65.6667 28.8702 65.6667 29.5897C65.6667 30.3119 66.2521 30.8974 66.9744 30.8974H74.8205C75.5427 30.8974 76.1282 30.3119 76.1282 29.5897C76.1282 28.8702 75.5471 28.2864 74.8287 28.2821H74.3846C73.4217 28.2821 72.641 27.5014 72.641 26.5385C72.641 25.5755 73.4217 24.7949 74.3846 24.7949H77V24.7948H79.6154L80.4872 24.7948C81.4501 24.7948 82.2308 24.0142 82.2308 23.0513C82.2308 22.0914 81.4551 21.3127 80.4964 21.3077H76.5641C75.8419 21.3077 75.2564 20.7222 75.2564 20C75.2564 19.2778 75.8419 18.6923 76.5641 18.6923H79.6154V18.6923H85.718C86.6809 18.6923 87.4615 17.9117 87.4615 16.9487C87.4615 15.9857 86.6809 15.2051 85.718 15.2051H81.8031L81.7949 15.2051H76.5641C75.8419 15.2051 75.2564 14.6197 75.2564 13.8974C75.2564 13.1752 75.8419 12.5897 76.5641 12.5897H79.6154V12.5897H81.359C82.3219 12.5897 83.1026 11.8091 83.1026 10.8461C83.1026 9.88317 82.3219 9.10254 81.359 9.10254H79.6154H73.5128Z" fill="#A7D6C6"/>
<path fill-rule="evenodd" clip-rule="evenodd" d="M31.967 59.6667H32.0781V59.6706C32.9081 59.7276 33.5638 60.419 33.5638 61.2635C33.5638 62.108 32.9081 62.7994 32.0781 62.8565V62.8601H31.2978C30.416 62.8601 29.7011 63.575 29.7011 64.4569C29.7011 65.3388 30.416 66.0536 31.2978 66.0536H32.0781V66.0537H35.5325C36.4144 66.0537 37.1293 66.7686 37.1293 67.6504C37.1293 68.5323 36.4144 69.2472 35.5325 69.2472H32.0781V69.2473H16.6274V69.2472H16.4414C15.5595 69.2472 14.8446 68.5323 14.8446 67.6504C14.8446 66.7686 15.5595 66.0537 16.4414 66.0537H16.6274V66.0536H19.1904C20.0723 66.0536 20.7872 65.3388 20.7872 64.4569C20.7872 63.575 20.0723 62.8601 19.1904 62.8601H15.55L15.5229 62.8604H14.9557C14.0739 62.8604 13.359 62.1455 13.359 61.2636C13.359 60.3817 14.0739 59.6668 14.9557 59.6668H16.6274V59.6667H28.3266H31.967Z" fill="#A7D6C6"/>
<path fill-rule="evenodd" clip-rule="evenodd" d="M9 9.82747C9 8.94561 9.71489 8.23071 10.5968 8.23071H14.2372L14.2507 8.23077H23.9676H27.608H27.7191V8.23457C28.5491 8.2916 29.2048 8.983 29.2048 9.82753C29.2048 10.6721 28.5491 11.3635 27.7191 11.4205V11.4242H26.9389C26.057 11.4242 25.3421 12.1391 25.3421 13.021C25.3421 13.9029 26.057 14.6178 26.9389 14.6178H30.5793C30.5841 14.6178 30.5889 14.6177 30.5936 14.6177H31.1736C32.0554 14.6177 32.7703 15.3326 32.7703 16.2144C32.7703 17.0963 32.0554 17.8112 31.1736 17.8112H27.7191V17.8113H12.2684V17.8112H12.0824C11.2005 17.8112 10.4857 17.0963 10.4857 16.2144C10.4857 15.3374 11.1928 14.6254 12.0681 14.6178H14.8314C15.7133 14.6178 16.4282 13.9029 16.4282 13.021C16.4282 12.1391 15.7133 11.4242 14.8314 11.4242H11.191L11.1864 11.4242H10.5968C9.71489 11.4242 9 10.7093 9 9.82747Z" fill="#A7D6C6"/>
</g>
<rect x="1.5" y="12.5" width="33" height="19" rx="3.5" fill="white" stroke="#112035" stroke-width="3"/>
<path fill-rule="evenodd" clip-rule="evenodd" d="M10.4244 21.7895C11.4751 21.7895 12.3269 20.9412 12.3269 19.8947C12.3269 18.8483 11.4751 18 10.4244 18C9.37372 18 8.52197 18.8483 8.52197 19.8947C8.52197 20.9412 9.37372 21.7895 10.4244 21.7895Z" fill="#112035"/>
<path fill-rule="evenodd" clip-rule="evenodd" d="M11.8485 26.3368C12.9531 26.3368 13.8911 25.3686 13.2775 24.4501C12.664 23.5316 11.6151 22.9263 10.4244 22.9263C9.23363 22.9263 8.18483 23.5316 7.57126 24.4501C6.95771 25.3686 7.89544 26.3368 9.00001 26.3368C9.97288 26.3368 10.8571 26.3368 11.8485 26.3368Z" fill="#112035"/>
<path fill-rule="evenodd" clip-rule="evenodd" d="M29 21H17V18H29V21Z" fill="#112035"/>
<path fill-rule="evenodd" clip-rule="evenodd" d="M29 26H17V23H29V26Z" fill="#112035"/>
</svg>
