<svg width="74" height="95" viewBox="0 0 74 95" fill="none" xmlns="http://www.w3.org/2000/svg">
<path fill-rule="evenodd" clip-rule="evenodd" d="M26.875 14.625C26.875 9.5625 30.25 4.5 37.0011 4.5C43.75 4.5 47.125 9.5625 47.125 14.625C47.125 22.6875 37.0011 31.5 37.0011 31.5C37.0011 31.5 26.875 21.75 26.875 14.625ZM32.5 15C32.5 17.4855 34.5145 19.5 37 19.5C39.4855 19.5 41.5 17.4855 41.5 15C41.5 12.5145 39.4855 10.5 37 10.5C34.5145 10.5 32.5 12.5145 32.5 15Z" fill="#112035"/>
<ellipse cx="20.5" cy="86" rx="6.5" ry="6" fill="#112035"/>
<circle cx="51" cy="86" r="6" fill="#112035"/>
<path d="M0 79C0 73.4772 4.61282 69 10.303 69H34V87H0V79Z" fill="#FFB2B4"/>
<path fill-rule="evenodd" clip-rule="evenodd" d="M30.9091 72H10.303C6.31989 72 3.09091 75.134 3.09091 79V84H30.9091V72ZM10.303 69C4.61282 69 0 73.4772 0 79V87H34V69H10.303Z" fill="#112035"/>
<path fill-rule="evenodd" clip-rule="evenodd" d="M22.5 81C23.8807 81 25 79.8807 25 78.5C25 77.1193 23.8807 76 22.5 76C21.1193 76 20 77.1193 20 78.5C20 79.8807 21.1193 81 22.5 81Z" fill="white"/>
<path fill-rule="evenodd" clip-rule="evenodd" d="M18 78.5C18 76.567 19.7909 75 22 75C24.2091 75 26 76.567 26 78.5C26 80.433 24.2091 82 22 82C19.7909 82 18 80.433 18 78.5ZM22 77C21.0532 77 20.2857 77.6716 20.2857 78.5C20.2857 79.3284 21.0532 80 22 80C22.9468 80 23.7143 79.3284 23.7143 78.5C23.7143 77.6716 22.9468 77 22 77Z" fill="#15243A"/>
<path fill-rule="evenodd" clip-rule="evenodd" d="M9.5 81C10.8807 81 12 79.8807 12 78.5C12 77.1193 10.8807 76 9.5 76C8.11929 76 7 77.1193 7 78.5C7 79.8807 8.11929 81 9.5 81Z" fill="white"/>
<path fill-rule="evenodd" clip-rule="evenodd" d="M6 78.5C6 76.567 7.567 75 9.5 75C11.433 75 13 76.567 13 78.5C13 80.433 11.433 82 9.5 82C7.567 82 6 80.433 6 78.5ZM9.5 77C8.67157 77 8 77.6716 8 78.5C8 79.3284 8.67157 80 9.5 80C10.3284 80 11 79.3284 11 78.5C11 77.6716 10.3284 77 9.5 77Z" fill="#15243A"/>
<path d="M31 69H63.7619C69.4162 69 74 73.4772 74 79V87H31V69Z" fill="#FFB2B4"/>
<path fill-rule="evenodd" clip-rule="evenodd" d="M63.7619 72H34.0714V84H70.9286V79C70.9286 75.134 67.7199 72 63.7619 72ZM31 69V87H74V79C74 73.4772 69.4162 69 63.7619 69H31Z" fill="#112035"/>
<path fill-rule="evenodd" clip-rule="evenodd" d="M64 72H31V45H53.7328C56.6995 45 59.2487 47.1204 59.8089 50.0541L64 72Z" fill="white"/>
<path fill-rule="evenodd" clip-rule="evenodd" d="M64 72H31V45H53.7328C56.6995 45 59.2487 47.1204 59.8089 50.0541L64 72ZM60.2546 68.8846H34.0938V48.1154H53.7328C55.0307 48.1154 56.1688 48.9271 56.6207 50.1127C56.6853 50.2821 56.7358 50.4591 56.7709 50.6424L60.2546 68.8846Z" fill="#112035"/>
<path d="M13.2334 50.0541C13.7993 47.1204 16.3743 45 19.3709 45H34V72H9L13.2334 50.0541Z" fill="white"/>
<path fill-rule="evenodd" clip-rule="evenodd" d="M13.2334 50.0541C13.7993 47.1204 16.3743 45 19.3709 45H34V72H9L13.2334 50.0541ZM30.875 68.8846V48.1154H19.3709C17.8726 48.1154 16.5851 49.1756 16.3022 50.6424L12.7832 68.8846H30.875Z" fill="#112035"/>
<path fill-rule="evenodd" clip-rule="evenodd" d="M29 64.9732L15.4349 72L14 69.0268L27.5651 62L29 64.9732Z" fill="#15243A"/>
<circle cx="38" cy="86" r="6" fill="#112035"/>
<circle cx="38" cy="86" r="2" fill="white"/>
<circle cx="65" cy="86" r="6" fill="#112035"/>
<circle cx="65" cy="86" r="2" fill="white"/>
<path fill-rule="evenodd" clip-rule="evenodd" d="M54 85V71H57V85H54Z" fill="#112035"/>
<path fill-rule="evenodd" clip-rule="evenodd" d="M52 77H48V74H52V77Z" fill="#112035"/>
<ellipse opacity="0.2" cx="37" cy="92" rx="37" ry="3" fill="#112035"/>
</svg>
