<?xml version="1.0" encoding="utf-8"?>
<!-- Generator: Adobe Illustrator 16.0.0, SVG Export Plug-In . SVG Version: 6.00 Build 0)  -->
<!DOCTYPE svg PUBLIC "-//W3C//DTD SVG 1.1//EN" "http://www.w3.org/Graphics/SVG/1.1/DTD/svg11.dtd">
<svg version="1.1" xmlns="http://www.w3.org/2000/svg" xmlns:xlink="http://www.w3.org/1999/xlink" x="0px" y="0px"
	 width="189.279px" height="32.772px" viewBox="0 0 189.279 32.772" enable-background="new 0 0 189.279 32.772"
	 xml:space="preserve">
<g id="Layer_1" display="none">
</g>
<g id="Layer_2">
	<g>
		<path fill="#3498DB" d="M15.777,26.812l-2.122-6.044H5.254l-2.122,6.044H0.366L8.152,5.693h2.605l7.786,21.119H15.777z
			 M9.411,8.898L6.03,18.528h6.849l-3.38-9.629H9.411z"/>
		<path fill="#3498DB" d="M23.592,18.456v8.356h-2.634V5.693h7.918c2.039,0,3.671,0.573,4.896,1.719
			c1.224,1.147,1.836,2.671,1.836,4.574c0,1.474-0.375,2.747-1.126,3.82c-0.751,1.073-1.791,1.82-3.118,2.239l4.888,8.767h-3.088
			l-4.522-8.356H23.592z M23.592,8.035v8.094h5.049c1.356,0,2.403-0.352,3.139-1.054c0.737-0.702,1.105-1.702,1.105-3
			c0-1.268-0.385-2.259-1.156-2.971c-0.771-0.712-1.839-1.068-3.206-1.068H23.592z"/>
		<path fill="#3498DB" d="M59.727,26.812h-2.458V10.538h-0.103l-6.732,16.128h-2.225l-6.732-16.128h-0.103v16.274h-2.459V5.693
			h3.059l7.288,17.621h0.117l7.289-17.621h3.059V26.812z"/>
		<path d="M77.948,26.812h-2.635V8.064h-6.659V5.693h15.953v2.371h-6.659V26.812z"/>
		<path d="M90.022,18.456v8.356h-2.634V5.693h7.918c2.04,0,3.67,0.573,4.895,1.719c1.225,1.147,1.838,2.671,1.838,4.574
			c0,1.474-0.377,2.747-1.127,3.82c-0.752,1.073-1.791,1.82-3.117,2.239l4.887,8.767h-3.088l-4.522-8.356H90.022z M90.022,8.035
			v8.094h5.049c1.356,0,2.403-0.352,3.139-1.054c0.736-0.702,1.105-1.702,1.105-3c0-1.268-0.387-2.259-1.156-2.971
			c-0.771-0.712-1.84-1.068-3.206-1.068H90.022z"/>
		<path d="M119.074,26.812l-2.122-6.044h-8.401l-2.122,6.044h-2.766l7.786-21.119h2.604l7.786,21.119H119.074z M112.707,8.898
			l-3.381,9.629h6.85l-3.381-9.629H112.707z"/>
		<path d="M131.06,26.812h-2.604l-7.786-21.119h2.766l6.278,17.914h0.088l6.279-17.914h2.766L131.06,26.812z"/>
		<path d="M154.344,24.441v2.371H141.26V5.693h13.084v2.371h-10.449v6.776h9.908v2.342h-9.908v7.259H154.344z"/>
		<path d="M170.633,24.441v2.371h-12.82V5.693h2.635v18.748H170.633z"/>
		<path d="M172.522,21.001h2.649c0.126,1.142,0.685,2.06,1.676,2.752c0.99,0.692,2.241,1.039,3.754,1.039
			c1.424,0,2.603-0.339,3.534-1.018c0.932-0.678,1.397-1.534,1.397-2.568c0-0.888-0.324-1.619-0.973-2.195
			c-0.649-0.575-1.686-1.049-3.11-1.419l-2.708-0.703c-1.951-0.498-3.376-1.193-4.273-2.085s-1.346-2.056-1.346-3.491
			c0-1.756,0.694-3.19,2.085-4.303s3.184-1.668,5.379-1.668c2.098,0,3.834,0.563,5.21,1.69s2.093,2.574,2.151,4.339h-2.635
			c-0.117-1.132-0.604-2.024-1.463-2.678c-0.859-0.653-1.976-0.98-3.352-0.98c-1.366,0-2.48,0.322-3.345,0.966
			c-0.863,0.644-1.295,1.483-1.295,2.518c0,0.8,0.314,1.456,0.944,1.968c0.629,0.512,1.661,0.954,3.095,1.325l2.21,0.585
			c2.186,0.547,3.757,1.273,4.713,2.181c0.956,0.908,1.435,2.118,1.435,3.629c0,1.933-0.71,3.462-2.13,4.589s-3.344,1.69-5.773,1.69
			c-2.244,0-4.078-0.562-5.503-1.684S172.649,22.866,172.522,21.001z"/>
	</g>
</g>
</svg>
