<?xml version="1.0" encoding="iso-8859-1"?>
<!-- Generator: Adobe Illustrator 19.0.0, SVG Export Plug-In . SVG Version: 6.00 Build 0)  -->
<svg version="1.1" id="Capa_1" xmlns="http://www.w3.org/2000/svg" xmlns:xlink="http://www.w3.org/1999/xlink" x="0px" y="0px"
	 viewBox="0 0 485.654 485.654" style="enable-background:new 0 0 485.654 485.654;" xml:space="preserve">
<g>
	<g>
		<path d="M274.827,287.998h-8v-80c0-4.416-3.576-8-8-8h-32c-1.304,0-2.592,0.32-3.744,0.928l-134.24,71.072H10.827
			c-4.424,0-8,3.584-8,8v96c0,4.416,3.576,8,8,8v88c0,4.416,3.576,8,8,8h40c4.424,0,8-3.584,8-8v-48h24c4.424,0,8-3.584,8-8v-26.32
			l116.08,65.296c1.192,0.672,2.544,1.024,3.92,1.024h40c4.424,0,8-3.584,8-8v-80h8c13.232,0,24-10.768,24-24v-32
			C298.827,298.766,288.059,287.998,274.827,287.998z M50.827,463.998h-24v-80h24V463.998z M82.827,407.998h-16v-24h16V407.998z
			 M82.827,367.998h-24h-40v-80h16v24h16v-24h32V367.998z M250.827,295.998v64v80h-29.904l-122.096-68.68v-86.504l120-63.528v50.712
			h16v-56h16V295.998z M282.827,343.998c0,4.408-3.584,8-8,8h-8v-48h8c4.416,0,8,3.592,8,8V343.998z"/>
	</g>
</g>
<g>
	<g>
		<rect x="218.827" y="287.998" width="16" height="16"/>
	</g>
</g>
<g>
	<g>
		<path d="M458.827,151.998v-80v-24v-40c0-2.608-1.272-5.056-3.416-6.552c-2.144-1.504-4.864-1.848-7.32-0.968l-88,32
			c-3.16,1.152-5.264,4.16-5.264,7.52s2.104,6.368,5.264,7.52l82.736,30.088v74.392h-32v16h72v-16H458.827z M442.827,47.998v12.576
			l-56.592-20.576l56.592-20.576V47.998z"/>
	</g>
</g>
<g>
	<g>
		<rect x="378.827" y="151.998" width="16" height="16"/>
	</g>
</g>
<g>
	<g>
		<polygon points="480.483,445.654 469.171,434.342 454.827,448.686 440.483,434.342 429.171,445.654 443.515,459.998 
			429.171,474.342 440.483,485.654 454.827,471.31 469.171,485.654 480.483,474.342 466.139,459.998 		"/>
	</g>
</g>
<g>
	<g>
		<path d="M378.827,247.998c-17.648,0-32,14.352-32,32s14.352,32,32,32s32-14.352,32-32S396.475,247.998,378.827,247.998z
			 M378.827,295.998c-8.824,0-16-7.176-16-16c0-8.824,7.176-16,16-16c8.824,0,16,7.176,16,16
			C394.827,288.822,387.651,295.998,378.827,295.998z"/>
	</g>
</g>
<g>
	<g>
		<path d="M98.827,39.998c-13.232,0-24,10.768-24,24s10.768,24,24,24s24-10.768,24-24S112.059,39.998,98.827,39.998z M98.827,71.998
			c-4.416,0-8-3.592-8-8s3.584-8,8-8s8,3.592,8,8S103.243,71.998,98.827,71.998z"/>
	</g>
</g>
<g>
	<g>
		<path d="M105.771,212.03l-32-56c-2.84-4.984-11.048-4.984-13.888,0l-32,56c-1.416,2.48-1.408,5.52,0.024,7.984
			s4.072,3.984,6.92,3.984h64c2.848,0,5.488-1.52,6.92-3.984S107.187,214.51,105.771,212.03z M48.619,207.998l18.208-31.872
			l18.208,31.872H48.619z"/>
	</g>
</g>
<g>
	<g>
		<polygon points="232.483,77.654 221.171,66.342 202.827,84.686 184.483,66.342 173.171,77.654 191.515,95.998 173.171,114.342 
			184.483,125.654 202.827,107.31 221.171,125.654 232.483,114.342 214.139,95.998 		"/>
	</g>
</g>
<g>
	<g>
		<path d="M248.491,16.422l-4.832,15.256c4.912,1.552,9.76,3.312,14.4,5.224l6.096-14.792
			C259.107,20.022,253.835,18.11,248.491,16.422z"/>
	</g>
</g>
<g>
	<g>
		<path d="M283.555,384.03l-1.456,15.936c5.328,0.488,10.664,0.952,16,1.4l1.344-15.944
			C294.139,384.973,288.851,384.509,283.555,384.03z"/>
	</g>
</g>
<g>
	<g>
		<rect x="233.37" y="166.762" transform="matrix(0.264 -0.9645 0.9645 0.264 9.0858 361.4297)" width="16" height="16"/>
	</g>
</g>
<g>
	<g>
		<path d="M174.027,148.358l-4.328,15.408c5.16,1.448,10.328,2.864,15.512,4.256l4.16-15.456
			C184.251,151.19,179.131,149.79,174.027,148.358z"/>
	</g>
</g>
<g>
	<g>
		
			<rect x="202.482" y="158.476" transform="matrix(0.2569 -0.9664 0.9664 0.2569 -4.4812 327.1226)" width="15.999" height="15.999"/>
	</g>
</g>
<g>
	<g>
		<rect x="264.271" y="175.13" transform="matrix(0.2597 -0.9657 0.9657 0.2597 24.716 398.501)" width="16" height="16"/>
	</g>
</g>
<g>
	<g>
		<path d="M410.707,121.63l-8.832,13.344c4.616,3.056,9.008,5.752,13.04,8l7.816-13.96
			C419.043,126.95,414.995,124.462,410.707,121.63z"/>
	</g>
</g>
<g>
	<g>
		<path d="M33.491,57.118l-15.64-3.392c-0.816,3.752-1.224,7.496-1.224,11.16c0.008,2.608,0.224,5.2,0.64,7.712l15.784-2.608
			c-0.272-1.664-0.416-3.384-0.424-5.136C32.627,62.358,32.915,59.75,33.491,57.118z"/>
	</g>
</g>
<g>
	<g>
		<path d="M183.619,5.31l-0.92,15.976c5.16,0.296,10.344,0.704,15.56,1.264l1.688-15.912C194.475,6.062,189.027,5.63,183.619,5.31z"
			/>
	</g>
</g>
<g>
	<g>
		<path d="M157.947,4.614c-2.28,0.008-4.6,0.008-6.88,0.04l0.184,16c1.984-0.024,3.976-0.04,5.992-0.04
			c3.208,0.008,6.48,0.032,9.768,0.088l0.296-16C164.155,4.646,161.027,4.614,157.947,4.614z"/>
	</g>
</g>
<g>
	<g>
		<path d="M143.667,139.27l-4.92,15.224c5.136,1.656,10.28,3.248,15.464,4.792l4.56-15.336
			C153.715,142.446,148.675,140.886,143.667,139.27z"/>
	</g>
</g>
<g>
	<g>
		<path d="M216.243,8.829l-2.592,15.792c5.168,0.848,10.264,1.856,15.168,3l3.64-15.584C227.211,10.814,221.747,9.726,216.243,8.829
			z"/>
	</g>
</g>
<g>
	<g>
		<path d="M390.027,209.798l-5.504,15.024c4.808,1.76,9.64,3.664,14.448,5.744l6.36-14.68
			C400.243,213.686,395.115,211.662,390.027,209.798z"/>
	</g>
</g>
<g>
	<g>
		<path d="M359.315,199.542l-4.784,15.264c5.064,1.584,10.096,3.208,15.112,4.864l5.032-15.184
			C369.579,202.798,364.459,201.15,359.315,199.542z"/>
	</g>
</g>
<g>
	<g>
		<rect x="353.37" y="86.821" transform="matrix(0.6142 -0.7892 0.7892 0.6142 64.5951 321.7666)" width="16.001" height="16.001"/>
	</g>
</g>
<g>
	<g>
		<path d="M134.923,5.022c-5.528,0.176-10.896,0.392-16.064,0.608l0.656,15.984c5.12-0.208,10.44-0.424,15.92-0.6L134.923,5.022z"/>
	</g>
</g>
<g>
	<g>
		<path d="M385.195,103.198l-9.704,12.72c4.424,3.376,8.744,6.624,12.968,9.696l9.408-12.936
			C393.747,109.678,389.523,106.501,385.195,103.198z"/>
	</g>
</g>
<g>
	<g>
		<path d="M37.619,81.99l-13.688,8.296c2.92,4.816,6.8,9.512,11.52,13.968l10.976-11.648C42.755,89.142,39.795,85.574,37.619,81.99z
			"/>
	</g>
</g>
<g>
	<g>
		<path d="M113.987,128.725l-5.84,14.896c5.04,1.984,10.128,3.872,15.232,5.68l5.344-15.08
			C123.787,132.47,118.875,130.637,113.987,128.725z"/>
	</g>
</g>
<g>
	<g>
		<path d="M102.907,6.238c-5.264,0.184-10.76,0.384-16.28,0.784l1.144,15.96c5.336-0.384,10.624-0.576,15.704-0.752L102.907,6.238z"
			/>
	</g>
</g>
<g>
	<g>
		<path d="M36.971,22.35c-5.008,3.928-9.2,8.688-12.432,14.152l13.768,8.16c2.248-3.808,5.032-6.984,8.52-9.704L36.971,22.35z"/>
	</g>
</g>
<g>
	<g>
		<path d="M96.547,121.422c-3.608-1.576-7.52-3.28-11.584-5.144l-6.656,14.544c4.16,1.904,8.152,3.648,11.84,5.256l2.928,1.28
			l6.424-14.648L96.547,121.422z"/>
	</g>
</g>
<g>
	<g>
		<path d="M57.963,101.67l-8.92,13.28c4.336,2.92,9.064,5.728,14.464,8.6l7.512-14.128C66.115,106.806,61.851,104.27,57.963,101.67z
			"/>
	</g>
</g>
<g>
	<g>
		<path d="M69.907,8.998c-6.288,1.112-11.824,2.584-16.888,4.504l5.672,14.96c4.112-1.56,8.696-2.768,14-3.704L69.907,8.998z"/>
	</g>
</g>
<g>
	<g>
		<path d="M328.467,190.31l-4.408,15.384c5.112,1.456,10.2,2.944,15.28,4.464l4.576-15.328
			C338.779,193.294,333.635,191.79,328.467,190.31z"/>
	</g>
</g>
<g>
	<g>
		<path d="M279.243,29.118l-7.264,14.248c4.56,2.328,9.104,4.832,13.624,7.48l8.08-13.816
			C288.891,34.23,284.075,31.574,279.243,29.118z"/>
	</g>
</g>
<g>
	<g>
		<path d="M459.939,330.366c-1.88,4.208-4.304,8.384-7.2,12.416l12.984,9.344c3.528-4.904,6.496-10.024,8.832-15.216
			L459.939,330.366z"/>
	</g>
</g>
<g>
	<g>
		<path d="M362.187,389.405c-3.656,0.2-7.256,0.192-10.728-0.048l-4.28-0.296l-1.096,15.96l4.296,0.296
			c2.216,0.152,4.48,0.224,6.768,0.224c1.944,0,3.904-0.056,5.88-0.16L362.187,389.405z"/>
	</g>
</g>
<g>
	<g>
		<path d="M307.603,45.614l-8.696,13.44c4.384,2.832,8.736,5.768,13.056,8.776l9.144-13.128
			C316.643,51.59,312.139,48.55,307.603,45.614z"/>
	</g>
</g>
<g>
	<g>
		<polygon points="297.555,181.678 293.331,197.118 308.731,201.358 313.011,185.941 		"/>
	</g>
</g>
<g>
	<g>
		<polygon points="315.339,386.717 314.091,402.67 330.075,403.886 331.267,387.934 		"/>
	</g>
</g>
<g>
	<g>
		<path d="M391.619,383.91c-4.856,1.52-9.776,2.76-14.616,3.672l2.984,15.72c5.448-1.032,10.96-2.416,16.416-4.12L391.619,383.91z"
			/>
	</g>
</g>
<g>
	<g>
		<path d="M334.283,64.126l-9.472,12.904c4.28,3.144,8.512,6.32,12.696,9.504l9.704-12.72
			C342.955,70.566,338.643,67.326,334.283,64.126z"/>
	</g>
</g>
<g>
	<g>
		<path d="M480.899,301.974l-15.968,1.08c0.096,1.32,0.144,2.632,0.144,3.936c0,3.336-0.304,6.704-0.912,9.992l15.736,2.904
			c0.784-4.248,1.176-8.584,1.176-12.896C481.067,305.326,481.003,303.654,480.899,301.974z"/>
	</g>
</g>
<g>
	<g>
		<path d="M448.427,241.686l-10.424,12.144c3.856,3.312,7.352,6.808,10.384,10.4l12.216-10.328
			C457.027,249.662,452.931,245.55,448.427,241.686z"/>
	</g>
</g>
<g>
	<g>
		<path d="M419.299,371.829c-4.32,2.488-8.864,4.776-13.504,6.8l6.392,14.656c5.176-2.256,10.256-4.816,15.096-7.592
			L419.299,371.829z"/>
	</g>
</g>
<g>
	<g>
		<path d="M476.723,281.918c-1.64-4.704-3.704-9.296-6.128-13.648l-13.968,7.816c1.984,3.536,3.656,7.264,5.008,11.152
			c0.224,0.656,0.448,1.304,0.64,1.952l15.296-4.704C477.299,283.613,477.019,282.733,476.723,281.918z"/>
	</g>
</g>
<g>
	<g>
		<path d="M420.323,223.014l-7.424,14.176c4.68,2.456,9.096,5.04,13.128,7.68l8.784-13.376
			C430.347,228.558,425.475,225.71,420.323,223.014z"/>
	</g>
</g>
<g>
	<g>
		<path d="M443.171,353.878c-3.4,3.368-7.2,6.632-11.288,9.688l9.576,12.816c4.68-3.504,9.048-7.248,12.976-11.136L443.171,353.878z
			"/>
	</g>
</g>
<g>
</g>
<g>
</g>
<g>
</g>
<g>
</g>
<g>
</g>
<g>
</g>
<g>
</g>
<g>
</g>
<g>
</g>
<g>
</g>
<g>
</g>
<g>
</g>
<g>
</g>
<g>
</g>
<g>
</g>
</svg>
