<?xml version="1.0" encoding="UTF-8"?>
<svg width="656px" height="550px" viewBox="0 0 656 550" version="1.1" xmlns="http://www.w3.org/2000/svg" xmlns:xlink="http://www.w3.org/1999/xlink">
    <!-- Generator: Sketch 48.2 (47327) - http://www.bohemiancoding.com/sketch -->
    <title>Group</title>
    <desc>Created with Sketch.</desc>
    <defs></defs>
    <g id="Homepage" stroke="none" stroke-width="1" fill="none" fill-rule="evenodd" transform="translate(-655.000000, -139.000000)">
        <g id="Hero" transform="translate(130.000000, 57.000000)">
            <g id="Group" transform="translate(527.000000, 82.000000)">
                <g id="Traveler" transform="translate(0.000000, 56.000000)">
                    <path d="M294,106 L294,92.5 C294,88.082 297.582,84.5 302,84.5 C306.418,84.5 310,88.082 310,92.5 L310,106" id="Stroke-1" stroke="#0F1C70" stroke-width="4" stroke-linecap="round" stroke-linejoin="round"></path>
                    <polygon id="Fill-3" fill="#FFCB98" points="292.9863 406.1875 285.5443 380.2335 342.6993 363.8445 350.1413 389.7985"></polygon>
                    <path d="M273.8447,425.8579 L273.8447,379.8579 C273.8447,373.2309 279.2167,367.8579 285.8447,367.8579 C292.4717,367.8579 297.8447,373.2309 297.8447,379.8579 L297.8447,425.8579 C297.8447,432.4849 292.4717,437.8579 285.8447,437.8579 C279.2167,437.8579 273.8447,432.4849 273.8447,425.8579" id="Fill-5" fill="#FFFFFF"></path>
                    <path d="M297.8447,404.8579 C293.4257,404.8579 289.8447,398.5899 289.8447,390.8579 C289.8447,383.1259 293.4257,376.8579 297.8447,376.8579" id="Fill-7" fill="#FFCB98"></path>
                    <polygon id="Fill-9" fill="#0F1C70" points="277.8447 403.8579 277.8447 399.8579 293.8447 405.8579 293.8447 409.8579"></polygon>
                    <polygon id="Fill-11" fill="#0F1C70" points="277.8447 411.8579 277.8447 407.8579 293.8447 413.8579 293.8447 417.8579"></polygon>
                    <polygon id="Fill-13" fill="#FFCB98" points="406.3291 473.8579 380.3751 481.2999 363.9861 424.1449 389.9401 416.7029"></polygon>
                    <path d="M426,493 L380,493 C373.373,493 368,487.627 368,481 C368,474.373 373.373,469 380,469 L426,469 C432.627,469 438,474.373 438,481 C438,487.627 432.627,493 426,493" id="Fill-15" fill="#FFFFFF"></path>
                    <path d="M405,469 C405,473.418 398.732,477 391,477 C383.268,477 377,473.418 377,469" id="Fill-17" fill="#FFCB98"></path>
                    <polygon id="Fill-19" fill="#0F1C70" points="404 489 400 489 406 473 410 473"></polygon>
                    <polygon id="Fill-21" fill="#0F1C70" points="412 489 408 489 414 473 418 473"></polygon>
                    <path d="M320,185 L231,185 C216.088,185 204,172.912 204,158 C204,143.088 216.088,131 231,131 L320,131 C334.912,131 347,143.088 347,158 C347,172.912 334.912,185 320,185" id="Fill-25" fill="#FFE430"></path>
                    <path d="M268,238 L300,238 C306.627,238 312,232.627 312,226 L312,105.55 C312,101.38 308.62,98 304.45,98 L298.237,98 C274.91,98 256,116.91 256,140.237 L256,226 C256,232.627 261.373,238 268,238" id="Fill-27" fill="#17D5D1"></path>
                    <path d="M141,492 L38,492" id="Stroke-29" stroke="#0F1C70" stroke-width="4" stroke-linecap="round" stroke-linejoin="round"></path>
                    <path d="M25,492 L0,492" id="Stroke-31" stroke="#0F1C70" stroke-width="4" stroke-linecap="round" stroke-linejoin="round"></path>
                    <path d="M406.7793,381.7168 C396.1613,384.7608 385.0863,378.6218 382.0413,368.0048 L351.9653,263.1168 C348.9213,252.4998 355.0593,241.4238 365.6773,238.3798 C376.2963,235.3348 387.3713,241.4738 390.4163,252.0918 L420.4913,356.9788 C423.5363,367.5968 417.3963,378.6718 406.7793,381.7168" id="Fill-33" fill="#0A1449"></path>
                    <path d="M405.833,381.834 L320.762,406.228 L309.461,366.816 L394.532,342.422 C405.416,339.302 416.768,345.595 419.889,356.478 C423.01,367.361 416.717,378.713 405.833,381.834" id="Fill-35" fill="#0A1449"></path>
                    <polygon id="Fill-37" fill="#0F1C70" points="405.1719 447.0762 366.7219 458.1012 311.8629 266.7862 350.3139 255.7612"></polygon>
                    <polygon id="Fill-39" fill="#FFCB98" points="336 111 366 111 366 61 336 61"></polygon>
                    <path d="M406,59 C406,80.539 388.539,98 367,98 C345.461,98 328,80.539 328,59 C328,37.461 345.461,20 367,20 C388.539,20 406,37.461 406,59" id="Fill-41" fill="#FFCB98"></path>
                    <path d="M332.4443,77.0962 C332.4443,77.0962 311.0003,35.0002 338.0003,15.0002 C365.0003,-4.9998 396.9363,6.0672 381.0003,30.0002 C381.0003,30.0002 378.0003,20.8672 354.0003,30.9332" id="Fill-42" fill="#0F1C70"></path>
                    <path d="M440.3691,197.8032 C434.9011,202.8722 426.3601,202.5492 421.2911,197.0812 L390.0461,163.3772 L409.8471,145.0212 L441.0921,178.7252 C446.1601,184.1932 445.8371,192.7342 440.3691,197.8032" id="Fill-43" fill="#FFCB98"></path>
                    <path d="M455.7822,146.8896 L474.1372,166.6896 L440.4332,197.9346 C434.9662,203.0036 426.4252,202.6806 421.3552,197.2126 C416.2872,191.7446 416.6102,183.2036 422.0782,178.1346 L455.7822,146.8896 Z" id="Fill-44" fill="#FFCB98"></path>
                    <path d="M399,64.5 C399,71.956 392.956,78 385.5,78 C378.044,78 372,71.956 372,64.5" id="Fill-45" fill="#FFFFFF"></path>
                    <path d="M482,152 C482,161.941 473.941,170 464,170 C454.059,170 446,161.941 446,152 C446,142.059 454.059,134 464,134 C473.941,134 482,142.059 482,152" id="Fill-46" fill="#FFCB98"></path>
                    <path d="M242,148 L236,148 C233.791,148 232,146.209 232,144 C232,141.791 233.791,140 236,140 L242,140 C244.209,140 246,141.791 246,144 C246,146.209 244.209,148 242,148" id="Fill-47" fill="#0F1C70"></path>
                    <path d="M241.5,176 L235.5,176 C233.291,176 231.5,174.209 231.5,172 C231.5,169.791 233.291,168 235.5,168 L241.5,168 C243.709,168 245.5,169.791 245.5,172 C245.5,174.209 243.709,176 241.5,176" id="Fill-48" fill="#0F1C70"></path>
                    <path d="M392,38 C392,49.046 398.716,58 407,58 C415.284,58 422,49.046 422,38 L392,38 Z" id="Fill-49" fill="#0F1C70"></path>
                    <path d="M359,38 C359,49.046 365.716,58 374,58 C382.284,58 389,49.046 389,38 L359,38 Z" id="Fill-50" fill="#0F1C70"></path>
                    <polygon id="Fill-51" fill="#0F1C70" points="345 49 365 49 365 45 345 45"></polygon>
                    <path d="M456.6494,147.5527 C454.1374,148.7007 451.1704,147.5947 450.0234,145.0827 L440.8804,125.0727 C439.7334,122.5607 440.8384,119.5947 443.3504,118.4477 C445.8624,117.2997 448.8294,118.4057 449.9764,120.9167 L459.1194,140.9277 C460.2664,143.4387 459.1614,146.4057 456.6494,147.5527" id="Fill-52" fill="#FFCB98"></path>
                    <path d="M469.6494,118.4473 C467.1374,117.2993 464.1704,118.4053 463.0234,120.9173 L453.8804,140.9273 C452.7334,143.4393 453.8384,146.4053 456.3504,147.5523 C458.8624,148.7003 461.8294,147.5943 462.9764,145.0833 L472.1194,125.0723 C473.2664,122.5613 472.1614,119.5943 469.6494,118.4473" id="Fill-53" fill="#FFCB98"></path>
                    <path d="M348,55 C348,59.971 343.971,64 339,64 C334.029,64 330,59.971 330,55 C330,50.029 334.029,46 339,46 C343.971,46 348,50.029 348,55" id="Fill-54" fill="#FFCB98"></path>
                    <path d="M385,47 C385,47 389.615,41.25 397,47" id="Stroke-55" stroke="#0F1C70" stroke-width="4" stroke-linecap="round" stroke-linejoin="round"></path>
                    <path d="M403.6133,450.9243 L369.9693,460.5713 C366.5183,461.5613 362.9193,459.5663 361.9293,456.1153 C360.9403,452.6643 362.9353,449.0653 366.3863,448.0753 L400.0303,438.4283 C403.4813,437.4383 407.0813,439.4343 408.0703,442.8843 C409.0593,446.3353 407.0643,449.9353 403.6133,450.9243" id="Fill-56" fill="#0A1449"></path>
                    <path d="M312.5752,405.1138 L302.9282,371.4698 C301.9382,368.0188 303.9332,364.4198 307.3852,363.4298 C310.8362,362.4408 314.4342,364.4358 315.4252,367.8858 L325.0722,401.5308 C326.0612,404.9818 324.0662,408.5808 320.6152,409.5708 C317.1642,410.5598 313.5652,408.5648 312.5752,405.1138" id="Fill-57" fill="#050D2D"></path>
                    <path d="M223.0088,284.8667 L247.2668,219.9647 C248.7548,215.9817 252.6458,213.7567 255.9558,214.9937 L273.9418,221.7157 C277.2518,222.9527 278.7298,227.1847 277.2408,231.1677 L252.9838,296.0707" id="Stroke-58" stroke="#0F1C70" stroke-width="4" stroke-linecap="round" stroke-linejoin="round"></path>
                    <polygon id="Fill-59" fill="#FFCB98" points="259.873 235.271 237.608 219.997 285.215 150.601 307.479 165.875"></polygon>
                    <path d="M272,221.5 C272,231.165 264.165,239 254.5,239 C244.835,239 237,231.165 237,221.5 C237,211.835 244.835,204 254.5,204 C264.165,204 272,211.835 272,221.5" id="Fill-60" fill="#FFCB98"></path>
                    <path d="M258.124,291.8057 L170.086,254.6267 C166.034,252.9157 161.368,254.8277 159.665,258.8967 L85.624,435.7277 C83.921,439.7977 85.824,444.4827 89.876,446.1947 L177.914,483.3727 C181.966,485.0837 186.632,483.1727 188.335,479.1037 L262.376,302.2717 C264.079,298.2027 262.176,293.5167 258.124,291.8057" id="Fill-61" fill="#FFE430"></path>
                    <path d="M180,480 C180,486.627 174.627,492 168,492 C161.373,492 156,486.627 156,480 C156,473.373 161.373,468 168,468 C174.627,468 180,473.373 180,480 Z" id="Stroke-62" stroke="#0F1C70" stroke-width="4"></path>
                    <path d="M380.8887,0 L357.9997,0 C340.3267,0 325.9997,14.327 325.9997,32 L394.9997,32 L394.9997,14.112 C394.9997,6.318 388.6817,0 380.8887,0" id="Fill-78" fill="#FFFFFF"></path>
                    <path d="M362,21 C362,27.075 357.075,32 351,32 L410,32 C416.075,32 421,27.075 421,21 L362,21 Z" id="Fill-79" fill="#17D5D1"></path>
                    <path d="M245,156 L245,160 C245,161.104 244.104,162 243,162 L235,162 C233.896,162 233,161.104 233,160 L233,156 C233,154.896 233.896,154 235,154 L243,154 C244.104,154 245,154.896 245,156" id="Fill-80" fill="#FF4676"></path>
                    <polygon id="Fill-81" fill="#FF4676" points="240 148 243 158 240 168 237 168 237 148"></polygon>
                    <polygon id="Fill-82" fill="#FF4676" points="234.5762 333.4336 214.5662 342.5766 205.4242 322.5666 225.4332 313.4236"></polygon>
                    <polygon id="Stroke-83" stroke="#FFFFFF" stroke-width="4" stroke-linecap="round" stroke-linejoin="round" points="234.5762 333.4336 214.5662 342.5766 205.4242 322.5666 225.4332 313.4236"></polygon>
                    <polygon id="Fill-84" fill="#17D5D1" points="213.0469 382.7568 180.3039 367.7958 186.9529 353.2428 219.6959 368.2038"></polygon>
                    <polygon id="Stroke-85" stroke="#FFFFFF" stroke-width="4" stroke-linecap="round" stroke-linejoin="round" points="213.0469 382.7568 180.3039 367.7958 186.9529 353.2428 219.6959 368.2038"></polygon>
                    <path d="M180,325.5 C180,332.403 174.403,338 167.5,338 C160.597,338 155,332.403 155,325.5 C155,318.597 160.597,313 167.5,313 C174.403,313 180,318.597 180,325.5" id="Fill-86" fill="#0F1C70"></path>
                    <path d="M180,325.5 C180,332.403 174.403,338 167.5,338 C160.597,338 155,332.403 155,325.5 C155,318.597 160.597,313 167.5,313 C174.403,313 180,318.597 180,325.5 Z" id="Stroke-87" stroke="#FFFFFF" stroke-width="4" stroke-linecap="round" stroke-linejoin="round"></path>
                    <path d="M416.125,135.125 L393.514,112.514 C389.983,108.983 385.195,107 380.202,107 L322.875,107 C316.025,107 309.572,110.211 305.441,115.675 L283.514,144.676 C282.143,146.489 282.557,149.08 284.425,150.375 L308.468,167.05 L302.318,271.592 C302.16,274.279 304.647,276.353 307.262,275.712 L392.776,254.789 C394.646,254.331 395.924,252.607 395.819,250.686 L391.153,164.948 L416.078,140.828 C417.684,139.273 417.705,136.705 416.125,135.125" id="Fill-88" fill="#FFFFFF"></path>
                    <path d="M366,107 C366,115.284 359.284,122 351,122 C342.716,122 336,115.284 336,107" id="Fill-89" fill="#FFCB98"></path>
                    <path d="M312,107 C312,107 352,130 306,209" id="Stroke-90" stroke="#0F1C70" stroke-width="4" stroke-linecap="round" stroke-linejoin="round"></path>
                    <polygon id="Fill-91" fill="#FFCB98" points="297 404 299 404 299 377 297 377"></polygon>
                </g>
                <g id="Plane" transform="translate(24.000000, 73.000000)">
                    <polyline id="Fill-65" fill="#0F1C70" points="126.2803 41.9458 82.5753 12.6348 101.2803 7.1898 163.6903 31.0558"></polyline>
                    <path d="M230.1201,24.8545 L48.3511,77.7645 L39.2101,45.3985 L194.3921,0.2275 L230.2831,11.9725 C236.5011,14.0075 236.3871,23.0305 230.1201,24.8545" id="Fill-66" fill="#17D5D1"></path>
                    <polyline id="Fill-67" fill="#0F1C70" points="125.4463 43.7666 100.3363 107.2546 123.0633 100.6396 170.9013 30.5356"></polyline>
                    <path d="M187.6172,19.7129 L186.8972,19.9219 C185.3352,20.3769 183.7062,19.4609 183.2582,17.8749 L182.1372,13.9069 C181.6892,12.3209 182.5932,10.6679 184.1542,10.2129 L184.8742,10.0029 C186.4362,9.5479 188.0662,10.4649 188.5132,12.0509 L189.6352,16.0189 C190.0822,17.6039 189.1792,19.2579 187.6172,19.7129" id="Fill-68" fill="#FFFFFF"></path>
                    <path d="M171.6758,24.3535 L170.9548,24.5625 C169.3938,25.0175 167.7638,24.1005 167.3168,22.5155 L166.1958,18.5475 C165.7468,16.9615 166.6508,15.3075 168.2128,14.8535 L168.9328,14.6435 C170.4948,14.1885 172.1238,15.1055 172.5718,16.6915 L173.6928,20.6585 C174.1408,22.2445 173.2378,23.8985 171.6758,24.3535" id="Fill-69" fill="#FFFFFF"></path>
                    <path d="M155.7334,28.9937 L155.0134,29.2027 C153.4514,29.6587 151.8224,28.7417 151.3744,27.1557 L150.2544,23.1877 C149.8054,21.6017 150.7094,19.9487 152.2704,19.4937 L152.9914,19.2837 C154.5524,18.8287 156.1824,19.7457 156.6294,21.3317 L157.7514,25.2997 C158.1994,26.8847 157.2954,28.5387 155.7334,28.9937" id="Fill-70" fill="#FFFFFF"></path>
                    <path d="M139.792,33.6343 L139.072,33.8433 C137.51,34.2983 135.88,33.3813 135.433,31.7963 L134.312,27.8283 C133.863,26.2423 134.767,24.5883 136.329,24.1343 L137.049,23.9243 C138.611,23.4693 140.24,24.3863 140.688,25.9723 L141.81,29.9393 C142.257,31.5253 141.354,33.1793 139.792,33.6343" id="Fill-71" fill="#FFFFFF"></path>
                    <path d="M123.8496,38.2744 L123.1296,38.4844 C121.5686,38.9394 119.9386,38.0224 119.4906,36.4364 L118.3706,32.4684 C117.9216,30.8834 118.8256,29.2294 120.3876,28.7744 L121.1076,28.5654 C122.6686,28.1094 124.2986,29.0264 124.7456,30.6124 L125.8676,34.5804 C126.3156,36.1664 125.4116,37.8194 123.8496,38.2744" id="Fill-72" fill="#FFFFFF"></path>
                    <path d="M107.9082,42.915 L107.1882,43.124 C105.6262,43.579 103.9972,42.663 103.5492,41.077 L102.4282,37.109 C101.9802,35.523 102.8832,33.87 104.4452,33.415 L105.1652,33.205 C106.7272,32.75 108.3562,33.667 108.8042,35.253 L109.9262,39.221 C110.3732,40.806 109.4702,42.46 107.9082,42.915" id="Fill-73" fill="#FFFFFF"></path>
                    <path d="M91.9658,47.5557 L91.2458,47.7647 C89.6848,48.2197 88.0548,47.3027 87.6068,45.7177 L86.4868,41.7497 C86.0378,40.1637 86.9418,38.5097 88.5038,38.0557 L89.2238,37.8457 C90.7848,37.3907 92.4148,38.3077 92.8628,39.8937 L93.9838,43.8607 C94.4318,45.4467 93.5278,47.1007 91.9658,47.5557" id="Fill-74" fill="#FFFFFF"></path>
                    <path d="M76.0244,52.1958 L75.3044,52.4048 C73.7424,52.8608 72.1134,51.9438 71.6654,50.3578 L70.5444,46.3898 C70.0964,44.8038 71.0004,43.1508 72.5614,42.6958 L73.2814,42.4858 C74.8434,42.0308 76.4734,42.9478 76.9204,44.5338 L78.0424,48.5018 C78.4894,50.0868 77.5864,51.7408 76.0244,52.1958" id="Fill-75" fill="#FFFFFF"></path>
                    <path d="M60.083,56.8364 L59.362,57.0454 C57.801,57.5004 56.171,56.5834 55.724,54.9984 L54.603,51.0304 C54.154,49.4444 55.058,47.7904 56.62,47.3364 L57.34,47.1264 C58.902,46.6714 60.531,47.5884 60.979,49.1744 L62.1,53.1424 C62.548,54.7274 61.645,56.3814 60.083,56.8364" id="Fill-76" fill="#FFFFFF"></path>
                    <polyline id="Fill-77" fill="#17D5D1" points="40.8037 44.9346 24.1587 28.7636 0.2457 35.7236 38.7867 80.5486 49.9467 77.3006"></polyline>
                </g>
                <g id="Sun-and-clouds" transform="translate(413.000000, 0.000000)">
                    <path d="M13.3496,19.3218 C15.7766,8.4238 25.4956,0.2738 37.1246,0.2738 C45.4456,0.2738 52.7876,4.4468 57.1826,10.8108 C58.7066,10.4258 60.2946,10.1988 61.9396,10.1988 C72.6546,10.1988 81.3396,18.8848 81.3396,29.5998 C81.3396,40.1628 72.8936,48.7368 62.3886,48.9778 L62.3906,48.9998 L15.4686,48.9998 L15.4686,48.9768 C15.3176,48.9818 15.1696,48.9998 15.0176,48.9998 C6.7946,48.9998 0.1286,42.3338 0.1286,34.1118 C0.1286,26.4528 5.9126,20.1518 13.3496,19.3218" id="Fill-23" fill="#FFFFFF"></path>
                    <path d="M173,61 C173,94.689 145.689,122 112,122 C78.311,122 51,94.689 51,61 C51,27.311 78.311,0 112,0 C145.689,0 173,27.311 173,61" id="Fill-63" fill="#FFE430"></path>
                    <path d="M221.9443,95.7515 C218.5723,80.6045 205.0633,69.2775 188.9013,69.2775 C177.3373,69.2775 167.1323,75.0775 161.0243,83.9235 C158.9053,83.3875 156.6983,83.0725 154.4123,83.0725 C139.5213,83.0725 127.4493,95.1445 127.4493,110.0365 C127.4493,124.7175 139.1873,136.6335 153.7883,136.9685 L153.7853,137.0005 L219.0003,137.0005 L219.0003,136.9685 C219.2103,136.9745 219.4153,137.0005 219.6273,137.0005 C231.0553,137.0005 240.3203,127.7355 240.3203,116.3075 C240.3203,105.6635 232.2803,96.9045 221.9443,95.7515" id="Fill-64" fill="#FFFFFF"></path>
                </g>
            </g>
        </g>
    </g>
</svg>